<?xml version="1.0" encoding="utf-8"?>
<!-- Generator: Adobe Illustrator 26.0.2, SVG Export Plug-In . SVG Version: 6.00 Build 0)  -->
<svg version="1.1" id="Layer_1" xmlns="http://www.w3.org/2000/svg" xmlns:xlink="http://www.w3.org/1999/xlink" x="0px" y="0px"
	 viewBox="0 0 119 131" style="enable-background:new 0 0 119 131;" xml:space="preserve">
<style type="text/css">
	.st0{fill:none;stroke:#000000;stroke-width:3.3148;stroke-miterlimit:10;}
	.st1{fill:none;stroke:#000000;stroke-width:3.3148;stroke-linecap:round;stroke-linejoin:round;stroke-miterlimit:10;}
</style>
<g>
	<g>
		<path d="M102.69,129.39H16.31c-7.63,0-13.83-6.21-13.83-13.83V15.44c0-7.63,6.21-13.83,13.83-13.83h86.38
			c7.63,0,13.83,6.21,13.83,13.83v100.11C116.52,123.18,110.32,129.39,102.69,129.39z M16.31,4.92c-5.8,0-10.52,4.72-10.52,10.52
			v100.11c0,5.8,4.72,10.52,10.52,10.52h86.38c5.8,0,10.52-4.72,10.52-10.52V15.44c0-5.8-4.72-10.52-10.52-10.52H16.31z"/>
	</g>
	<g>
		<g>
			<path d="M26.26,110.06c1.61,0,2.97,1.36,2.97,2.97s-1.36,2.97-2.97,2.97s-2.97-1.36-2.97-2.97S24.65,110.06,26.26,110.06z"/>
		</g>
		<g>
			<path d="M32.45,115.62V94.57h10.54c4.73,0,7.32,3.19,7.32,7.01c0,3.79-2.59,6.91-7.32,6.91h-5.11v7.13H32.45z M42.26,99.14h-4.39
				v4.73h4.39c1.45,0,2.52-0.92,2.52-2.34C44.78,100.09,43.71,99.14,42.26,99.14z"/>
		</g>
		<g>
			<path d="M67.06,115.62l-8.9-12.72v12.72h-5.43V94.57h5.59l8.52,12.12V94.57h5.46v21.05H67.06z"/>
		</g>
		<g>
			<path d="M86.4,94.22c4.61,0,7.45,2.27,8.99,4.89l-4.54,2.4c-0.85-1.39-2.46-2.49-4.45-2.49c-3.44,0-5.87,2.65-5.87,6.09
				s2.43,6.09,5.87,6.09c1.64,0,3.12-0.57,3.98-1.26v-1.77h-4.83v-4.51H95.7v8.24c-2.27,2.49-5.33,4.1-9.31,4.1
				c-6.28,0-11.39-4.2-11.39-10.89C75,98.42,80.12,94.22,86.4,94.22z"/>
		</g>
	</g>
	<g>
		<rect x="4.13" y="81.68" width="110.74" height="3.31"/>
	</g>
	<g>
		<g>
			<path d="M90.66,63.84H28.34c-0.62,0-1.19-0.35-1.47-0.9c-0.28-0.55-0.24-1.21,0.12-1.72L39.2,44.05c0.28-0.4,0.73-0.65,1.21-0.69
				c0.49-0.04,0.97,0.13,1.31,0.48l6.03,6.03c0.04,0.04,1.37,1.4,3.07,1.41c0.01,0,0.02,0,0.03,0c1.01,0,2.03-0.5,3.01-1.48
				c5.54-5.54,13.7-20.08,13.78-20.22c0.28-0.5,0.8-0.82,1.38-0.85c0.58-0.02,1.12,0.25,1.44,0.73l21.58,31.8
				c0.34,0.51,0.38,1.16,0.09,1.71C91.84,63.5,91.28,63.84,90.66,63.84z M31.55,60.53h55.99L69.2,33.51
				c-2.6,4.45-8.48,14.11-13,18.63c-1.66,1.66-3.53,2.47-5.45,2.45c-3.06-0.05-5.14-2.18-5.37-2.42l-4.61-4.61L31.55,60.53z"/>
		</g>
		<g>
			<path d="M50.75,35.83c-4.2,0-7.62-3.42-7.62-7.62s3.42-7.62,7.62-7.62s7.62,3.42,7.62,7.62S54.95,35.83,50.75,35.83z M50.75,23.9
				c-2.37,0-4.31,1.93-4.31,4.31s1.93,4.31,4.31,4.31s4.31-1.93,4.31-4.31S53.12,23.9,50.75,23.9z"/>
		</g>
	</g>
</g>
</svg>
