<?xml version="1.0" encoding="utf-8"?>
<!-- Generator: Adobe Illustrator 26.0.2, SVG Export Plug-In . SVG Version: 6.00 Build 0)  -->
<svg version="1.1" id="Layer_1" xmlns="http://www.w3.org/2000/svg" xmlns:xlink="http://www.w3.org/1999/xlink" x="0px" y="0px"
	 viewBox="0 0 119 131" style="enable-background:new 0 0 119 131;" xml:space="preserve">
<style type="text/css">
	.st0{fill:none;stroke:#000000;stroke-width:3.3148;stroke-miterlimit:10;}
	.st1{fill:none;stroke:#000000;stroke-width:3.3148;stroke-linecap:round;stroke-linejoin:round;stroke-miterlimit:10;}
</style>
<g>
	<g>
		<path d="M102.69,129.39H16.31c-7.63,0-13.83-6.21-13.83-13.83V15.44c0-7.63,6.21-13.83,13.83-13.83h86.38
			c7.63,0,13.83,6.21,13.83,13.83v100.11C116.52,123.18,110.32,129.39,102.69,129.39z M16.31,4.92c-5.8,0-10.52,4.72-10.52,10.52
			v100.11c0,5.8,4.72,10.52,10.52,10.52h86.38c5.8,0,10.52-4.72,10.52-10.52V15.44c0-5.8-4.72-10.52-10.52-10.52H16.31z"/>
	</g>
	<g>
		<g>
			<path d="M27.19,110.06c1.61,0,2.97,1.36,2.97,2.97s-1.36,2.97-2.97,2.97s-2.97-1.36-2.97-2.97S25.58,110.06,27.19,110.06z"/>
		</g>
		<g>
			<path d="M32.3,105.11c0-6.5,4.92-10.89,11.23-10.89c5.24,0,7.95,2.87,9.34,5.65l-4.67,2.21c-0.69-1.67-2.49-3.06-4.67-3.06
				c-3.28,0-5.71,2.65-5.71,6.09s2.43,6.09,5.71,6.09c2.18,0,3.98-1.39,4.67-3.06l4.67,2.21c-1.36,2.71-4.1,5.65-9.34,5.65
				C37.23,115.99,32.3,111.58,32.3,105.11z"/>
		</g>
		<g>
			<path d="M56.56,108.58c1.51,1.51,3.85,2.78,6.72,2.78c1.86,0,3-0.79,3-1.8c0-1.2-1.36-1.67-3.6-2.15
				c-3.47-0.69-8.33-1.58-8.33-6.56c0-3.53,3-6.6,8.39-6.6c3.38,0,6.31,1.01,8.55,2.93l-2.97,3.88c-1.77-1.45-4.07-2.18-5.93-2.18
				c-1.8,0-2.49,0.73-2.49,1.64c0,1.1,1.29,1.48,3.63,1.92c3.47,0.73,8.27,1.74,8.27,6.5c0,4.23-3.12,7.04-8.77,7.04
				c-4.26,0-7.23-1.33-9.34-3.35L56.56,108.58z"/>
		</g>
		<g>
			<path d="M80.01,115.62l-7.92-21.05h6.15l5.18,15.18l5.21-15.18h6.15l-7.95,21.05H80.01z"/>
		</g>
	</g>
	<g>
		<rect x="4.13" y="81.68" width="110.74" height="3.31"/>
	</g>
	<g>
		<path d="M76.1,19.08H42.93c-5.84,0-10.59,4.75-10.59,10.59v0.87c-0.02,0.11-0.03,0.22-0.03,0.34s0.01,0.23,0.03,0.34v10.45
			c-0.02,0.11-0.03,0.22-0.03,0.34s0.01,0.23,0.03,0.34v8.34c-0.02,0.11-0.03,0.22-0.03,0.34s0.01,0.23,0.03,0.34v8.34
			c-0.02,0.11-0.03,0.22-0.03,0.34s0.01,0.23,0.03,0.34v0.37c0,5.84,4.75,10.59,10.59,10.59h25.28c0.22,0.11,0.47,0.18,0.73,0.18
			s0.51-0.07,0.73-0.18h6.43c5.84,0,10.59-4.75,10.59-10.59V29.67C86.69,23.83,81.94,19.08,76.1,19.08z M70.6,58.37v-5.7h12.85v5.7
			H70.6z M46.86,58.37v-5.7h20.42v5.7H46.86z M67.28,61.69v6.39H46.86v-6.39H67.28z M43.55,32.54v7.81h-7.96v-7.81H43.55z
			 M67.28,32.54v7.81H46.86v-7.81H67.28z M46.86,29.22v-6.89h20.42v6.89H46.86z M46.86,43.66h20.42v5.7H46.86V43.66z M43.55,49.36
			h-7.96v-5.7h7.96V49.36z M70.6,43.66h12.85v5.7H70.6V43.66z M83.45,40.34H70.6v-7.81h12.85V40.34z M35.59,52.67h7.96v5.7h-7.96
			V52.67z M83.43,29.22H70.6v-6.89h5.5C80,22.33,83.19,25.38,83.43,29.22z M42.93,22.33h0.62v6.89h-7.94
			C35.84,25.38,39.03,22.33,42.93,22.33z M35.65,61.69h7.89v6.39h-0.62C39.2,68.08,36.12,65.29,35.65,61.69z M76.1,68.08h-5.5v-6.39
			h12.78C82.91,65.29,79.83,68.08,76.1,68.08z"/>
		<path d="M42.51,16.54h22.43c0.92,0,1.66-0.74,1.66-1.66v-1.56c0-0.92-0.74-1.66-1.66-1.66H42.51c-0.92,0-1.66,0.74-1.66,1.66v1.56
			C40.85,15.8,41.59,16.54,42.51,16.54z"/>
		<path d="M69.65,16.43h8.44c0.67,0,1.21-0.54,1.21-1.21v-2.23c0-0.67-0.54-1.21-1.21-1.21h-8.44c-0.67,0-1.21,0.54-1.21,1.21v2.23
			C68.43,15.89,68.98,16.43,69.65,16.43z"/>
	</g>
</g>
</svg>
