<?xml version="1.0" encoding="utf-8"?>
<!-- Generator: Adobe Illustrator 26.0.2, SVG Export Plug-In . SVG Version: 6.00 Build 0)  -->
<svg version="1.1" id="Layer_1" xmlns="http://www.w3.org/2000/svg" xmlns:xlink="http://www.w3.org/1999/xlink" x="0px" y="0px"
	 viewBox="0 0 119 131" style="enable-background:new 0 0 119 131;" xml:space="preserve">
<style type="text/css">
	.st0{fill:none;stroke:#000000;stroke-width:3.3148;stroke-miterlimit:10;}
	.st1{fill:none;stroke:#000000;stroke-width:3.3148;stroke-linecap:round;stroke-linejoin:round;stroke-miterlimit:10;}
</style>
<g>
	<path d="M102.69,1.61h-0.51h-9.25H16.31c-7.63,0-13.83,6.21-13.83,13.83v100.11c0,7.63,6.21,13.83,13.83,13.83h86.38
		c7.63,0,13.83-6.21,13.83-13.83V15.44C116.53,7.82,110.32,1.61,102.69,1.61z M102.18,4.92c6.08,0,11.03,4.95,11.03,11.03v5.83
		c-3.17-1.7-6.51-2.27-9.58-2.27c-3.25,0-6.19,0.64-8.27,1.27c0.98-4.1,2.19-11.14,0.46-15.86H102.18z M16.31,4.92h75.81
		c2.38,3.52,0.85,12.74-0.78,18.01c-0.19,0.62,0,1.3,0.49,1.73c0.49,0.43,1.19,0.53,1.79,0.26c0.11-0.05,11.32-5.07,19.59,0.75v56
		H5.79V15.44C5.79,9.64,10.51,4.92,16.31,4.92z M102.69,126.08H16.31c-5.8,0-10.52-4.72-10.52-10.52V84.99h107.42v30.56
		C113.21,121.36,108.49,126.08,102.69,126.08z"/>
	<circle cx="28.68" cy="113.03" r="2.97"/>
	<path d="M45.4,94.57H34.86v21.05h5.43v-7.13h5.11c4.73,0,7.32-3.12,7.32-6.91C52.72,97.75,50.13,94.57,45.4,94.57z M44.67,103.88
		h-4.39v-4.73h4.39c1.45,0,2.52,0.95,2.52,2.4C47.2,102.96,46.13,103.88,44.67,103.88z"/>
	<path d="M63.98,94.57h-8.83v21.05h8.87c6.59,0,11.36-4.01,11.36-10.54C75.37,98.54,70.61,94.57,63.98,94.57z M63.98,110.88h-3.41
		V99.3h3.44c3.85,0,5.81,2.52,5.81,5.77C69.82,108.2,67.67,110.88,63.98,110.88z"/>
	<polygon points="78.08,115.62 83.51,115.62 83.51,107.25 93.29,107.25 93.29,102.65 83.51,102.65 83.51,99.14 93.51,99.14 
		93.51,94.57 78.08,94.57 	"/>
	<path d="M38.07,69.96c0.61,0.28,1.24,0.41,1.91,0.41c3.54,0,7.8-3.81,11.58-10.54c0.49-0.88,1.04-1.9,1.64-3.04
		c1.12-0.32,2.22-0.63,3.28-0.97c3.46-1.12,7.1-2.21,10.8-2.88c2.4,2.21,5.25,4.22,8.4,5.23c3.07,0.98,5.6,0.91,7.53-0.21
		c2.17-1.26,2.66-3.34,2.71-3.57l0.04-0.25c0.02-0.22,0.13-2.24-1.31-3.82c-0.69-0.76-1.98-1.67-4.22-1.72
		c-0.64-0.01-1.27-0.03-1.9-0.05c-2.37-0.07-4.82-0.15-7.3,0.06c-0.89,0.07-1.78,0.17-2.67,0.3c-3.02-3.12-5.07-6.36-5.44-6.96
		c-0.5-0.81-1.09-1.93-1.7-3.2c1.11-2.89,1.88-5.35,2.06-6.83c0.56-4.79,0.59-8.4-1.11-10.43c-0.72-0.86-1.71-1.36-2.85-1.42
		c-2.21-0.13-3.55,0.74-4.28,1.5c-1.31,1.36-1.84,3.47-1.58,6.27c0.26,2.68,1.9,7.22,3.64,11.04c-1.84,4.58-4.44,10.23-6.71,14.73
		c-0.31,0.09-0.62,0.18-0.94,0.28h0c-2.94,0.89-6.31,2.11-8.95,4.38c-2.08,1.78-5.49,5.27-5.02,8.6
		C35.87,68.25,36.72,69.35,38.07,69.96z M78.4,52.31c0.64,0.02,1.29,0.04,1.93,0.05c0.49,0.01,1.14,0.1,1.49,0.47
		c0.26,0.27,0.33,0.67,0.35,0.87c-0.1,0.24-0.36,0.7-0.92,1.01c-0.96,0.52-2.49,0.47-4.43-0.15c-1.53-0.49-3-1.29-4.37-2.27
		C74.41,52.19,76.36,52.25,78.4,52.31z M57.95,24.18c0.09-0.09,0.35-0.36,1.12-0.36c0.07,0,0.14,0,0.22,0.01
		c0.12,0.01,0.13,0.03,0.18,0.08c0.46,0.54,0.87,2.3,0.25,7.56c-0.06,0.54-0.24,1.28-0.52,2.17c-0.93-2.41-1.65-4.72-1.79-6.17
		C57.2,25.23,57.72,24.42,57.95,24.18z M59.54,43.32c0.12,0.21,0.24,0.41,0.35,0.59c0.52,0.84,2.03,3.2,4.28,5.79
		c-2.98,0.67-5.88,1.55-8.66,2.45C56.88,49.33,58.29,46.25,59.54,43.32z M43.15,61.13c1.38-1.19,3.11-2.04,4.87-2.71
		c-3.81,6.58-7.38,8.57-8.39,8.11c-0.21-0.09-0.21-0.14-0.22-0.19C39.32,65.64,40.25,63.62,43.15,61.13z"/>
</g>
</svg>
